<mxfile host="app.diagrams.net" agent="Mozilla/5.0 (Windows NT 10.0; Win64; x64) AppleWebKit/537.36 (KHTML, like Gecko) Chrome/128.0.0.0 Safari/537.36" version="24.7.14">
  <diagram id="R2lEEEUBdFMjLlhIrx00" name="Page-1">
    <mxGraphModel dx="3000" dy="1491" grid="1" gridSize="10" guides="1" tooltips="1" connect="1" arrows="1" fold="1" page="1" pageScale="1" pageWidth="850" pageHeight="1100" math="0" shadow="0" extFonts="Permanent Marker^https://fonts.googleapis.com/css?family=Permanent+Marker">
      <root>
        <mxCell id="0" />
        <mxCell id="1" parent="0" />
        <mxCell id="l3QDP2yvxb4-1ACt48Nu-1" value="&amp;nbsp;&lt;font style=&quot;font-size: 13px;&quot;&gt;Admin&lt;/font&gt;/HR" style="rounded=0;whiteSpace=wrap;html=1;" vertex="1" parent="1">
          <mxGeometry x="90" y="240" width="120" height="60" as="geometry" />
        </mxCell>
        <mxCell id="l3QDP2yvxb4-1ACt48Nu-3" value="Attendance" style="rounded=0;whiteSpace=wrap;html=1;" vertex="1" parent="1">
          <mxGeometry x="90" y="770" width="120" height="60" as="geometry" />
        </mxCell>
        <mxCell id="l3QDP2yvxb4-1ACt48Nu-5" value="Student" style="rounded=0;whiteSpace=wrap;html=1;" vertex="1" parent="1">
          <mxGeometry x="630" y="240" width="120" height="60" as="geometry" />
        </mxCell>
        <mxCell id="l3QDP2yvxb4-1ACt48Nu-6" value="Result" style="rounded=0;whiteSpace=wrap;html=1;" vertex="1" parent="1">
          <mxGeometry x="630" y="770" width="120" height="60" as="geometry" />
        </mxCell>
        <mxCell id="l3QDP2yvxb4-1ACt48Nu-9" value="Manage" style="rhombus;whiteSpace=wrap;html=1;" vertex="1" parent="1">
          <mxGeometry x="340" y="580" width="110" height="80" as="geometry" />
        </mxCell>
        <mxCell id="l3QDP2yvxb4-1ACt48Nu-11" value="Record" style="rhombus;whiteSpace=wrap;html=1;" vertex="1" parent="1">
          <mxGeometry x="95" y="510" width="110" height="80" as="geometry" />
        </mxCell>
        <mxCell id="l3QDP2yvxb4-1ACt48Nu-12" value="Show" style="rhombus;whiteSpace=wrap;html=1;" vertex="1" parent="1">
          <mxGeometry x="635" y="510" width="110" height="80" as="geometry" />
        </mxCell>
        <mxCell id="l3QDP2yvxb4-1ACt48Nu-13" value="Request" style="rhombus;whiteSpace=wrap;html=1;" vertex="1" parent="1">
          <mxGeometry x="360" y="230" width="110" height="80" as="geometry" />
        </mxCell>
        <mxCell id="l3QDP2yvxb4-1ACt48Nu-16" value="" style="edgeStyle=entityRelationEdgeStyle;fontSize=12;html=1;endArrow=ERzeroToMany;endFill=1;rounded=0;entryX=0;entryY=0.5;entryDx=0;entryDy=0;exitX=1;exitY=0.5;exitDx=0;exitDy=0;" edge="1" parent="1" source="l3QDP2yvxb4-1ACt48Nu-13" target="l3QDP2yvxb4-1ACt48Nu-5">
          <mxGeometry width="100" height="100" relative="1" as="geometry">
            <mxPoint x="370" y="400" as="sourcePoint" />
            <mxPoint x="470" y="300" as="targetPoint" />
          </mxGeometry>
        </mxCell>
        <mxCell id="l3QDP2yvxb4-1ACt48Nu-17" value="" style="edgeStyle=entityRelationEdgeStyle;fontSize=12;html=1;endArrow=ERzeroToMany;endFill=1;rounded=0;exitX=0;exitY=0.5;exitDx=0;exitDy=0;entryX=1;entryY=0.5;entryDx=0;entryDy=0;" edge="1" parent="1" source="l3QDP2yvxb4-1ACt48Nu-13" target="l3QDP2yvxb4-1ACt48Nu-1">
          <mxGeometry width="100" height="100" relative="1" as="geometry">
            <mxPoint x="380" y="460" as="sourcePoint" />
            <mxPoint x="290" y="410" as="targetPoint" />
          </mxGeometry>
        </mxCell>
        <mxCell id="l3QDP2yvxb4-1ACt48Nu-18" value="" style="endArrow=none;html=1;rounded=0;exitX=0;exitY=0.5;exitDx=0;exitDy=0;" edge="1" parent="1" source="l3QDP2yvxb4-1ACt48Nu-9">
          <mxGeometry width="50" height="50" relative="1" as="geometry">
            <mxPoint x="390" y="530" as="sourcePoint" />
            <mxPoint x="210" y="270" as="targetPoint" />
          </mxGeometry>
        </mxCell>
        <mxCell id="l3QDP2yvxb4-1ACt48Nu-23" value="" style="endArrow=none;html=1;rounded=0;exitX=0.5;exitY=1;exitDx=0;exitDy=0;" edge="1" parent="1" source="l3QDP2yvxb4-1ACt48Nu-11">
          <mxGeometry relative="1" as="geometry">
            <mxPoint x="120" y="680" as="sourcePoint" />
            <mxPoint x="150" y="760" as="targetPoint" />
          </mxGeometry>
        </mxCell>
        <mxCell id="l3QDP2yvxb4-1ACt48Nu-24" value="" style="endArrow=none;html=1;rounded=0;entryX=0.5;entryY=0;entryDx=0;entryDy=0;exitX=0.5;exitY=1;exitDx=0;exitDy=0;" edge="1" parent="1" source="l3QDP2yvxb4-1ACt48Nu-1" target="l3QDP2yvxb4-1ACt48Nu-11">
          <mxGeometry relative="1" as="geometry">
            <mxPoint x="120" y="320" as="sourcePoint" />
            <mxPoint x="280" y="320" as="targetPoint" />
          </mxGeometry>
        </mxCell>
        <mxCell id="l3QDP2yvxb4-1ACt48Nu-26" value="" style="endArrow=none;html=1;rounded=0;entryX=0.5;entryY=0;entryDx=0;entryDy=0;exitX=0.5;exitY=1;exitDx=0;exitDy=0;" edge="1" parent="1" source="l3QDP2yvxb4-1ACt48Nu-5" target="l3QDP2yvxb4-1ACt48Nu-12">
          <mxGeometry width="50" height="50" relative="1" as="geometry">
            <mxPoint x="610" y="460" as="sourcePoint" />
            <mxPoint x="660" y="410" as="targetPoint" />
          </mxGeometry>
        </mxCell>
        <mxCell id="l3QDP2yvxb4-1ACt48Nu-27" value="" style="endArrow=none;html=1;rounded=0;entryX=0.5;entryY=1;entryDx=0;entryDy=0;exitX=0.5;exitY=0;exitDx=0;exitDy=0;" edge="1" parent="1" source="l3QDP2yvxb4-1ACt48Nu-6" target="l3QDP2yvxb4-1ACt48Nu-12">
          <mxGeometry width="50" height="50" relative="1" as="geometry">
            <mxPoint x="610" y="900" as="sourcePoint" />
            <mxPoint x="660" y="850" as="targetPoint" />
          </mxGeometry>
        </mxCell>
        <mxCell id="l3QDP2yvxb4-1ACt48Nu-28" value="" style="endArrow=none;html=1;rounded=0;entryX=1;entryY=0.5;entryDx=0;entryDy=0;exitX=0;exitY=0.25;exitDx=0;exitDy=0;" edge="1" parent="1" source="l3QDP2yvxb4-1ACt48Nu-6" target="l3QDP2yvxb4-1ACt48Nu-9">
          <mxGeometry width="50" height="50" relative="1" as="geometry">
            <mxPoint x="620" y="800" as="sourcePoint" />
            <mxPoint x="550" y="610" as="targetPoint" />
          </mxGeometry>
        </mxCell>
        <mxCell id="l3QDP2yvxb4-1ACt48Nu-29" value="&lt;u&gt;adminID&lt;/u&gt;" style="ellipse;whiteSpace=wrap;html=1;" vertex="1" parent="1">
          <mxGeometry x="60" y="70" width="90" height="40" as="geometry" />
        </mxCell>
        <mxCell id="l3QDP2yvxb4-1ACt48Nu-30" value="email" style="ellipse;whiteSpace=wrap;html=1;" vertex="1" parent="1">
          <mxGeometry x="20" y="140" width="90" height="40" as="geometry" />
        </mxCell>
        <mxCell id="l3QDP2yvxb4-1ACt48Nu-31" value="name" style="ellipse;whiteSpace=wrap;html=1;" vertex="1" parent="1">
          <mxGeometry x="160" y="70" width="90" height="40" as="geometry" />
        </mxCell>
        <mxCell id="l3QDP2yvxb4-1ACt48Nu-32" value="role" style="ellipse;whiteSpace=wrap;html=1;" vertex="1" parent="1">
          <mxGeometry x="205" y="140" width="80" height="40" as="geometry" />
        </mxCell>
        <mxCell id="l3QDP2yvxb4-1ACt48Nu-34" value="" style="endArrow=none;html=1;rounded=0;exitX=0.5;exitY=0;exitDx=0;exitDy=0;entryX=0.556;entryY=1;entryDx=0;entryDy=0;entryPerimeter=0;" edge="1" parent="1" source="l3QDP2yvxb4-1ACt48Nu-1" target="l3QDP2yvxb4-1ACt48Nu-30">
          <mxGeometry width="50" height="50" relative="1" as="geometry">
            <mxPoint x="250" y="190" as="sourcePoint" />
            <mxPoint x="300" y="140" as="targetPoint" />
          </mxGeometry>
        </mxCell>
        <mxCell id="l3QDP2yvxb4-1ACt48Nu-36" value="" style="endArrow=none;html=1;rounded=0;entryX=0.605;entryY=1.005;entryDx=0;entryDy=0;entryPerimeter=0;" edge="1" parent="1" target="l3QDP2yvxb4-1ACt48Nu-29">
          <mxGeometry width="50" height="50" relative="1" as="geometry">
            <mxPoint x="150" y="240" as="sourcePoint" />
            <mxPoint x="300" y="140" as="targetPoint" />
          </mxGeometry>
        </mxCell>
        <mxCell id="l3QDP2yvxb4-1ACt48Nu-37" value="" style="endArrow=none;html=1;rounded=0;exitX=0.375;exitY=1.009;exitDx=0;exitDy=0;exitPerimeter=0;" edge="1" parent="1" source="l3QDP2yvxb4-1ACt48Nu-31">
          <mxGeometry width="50" height="50" relative="1" as="geometry">
            <mxPoint x="250" y="190" as="sourcePoint" />
            <mxPoint x="150" y="240" as="targetPoint" />
          </mxGeometry>
        </mxCell>
        <mxCell id="l3QDP2yvxb4-1ACt48Nu-39" value="" style="endArrow=none;html=1;rounded=0;entryX=0.233;entryY=0.92;entryDx=0;entryDy=0;entryPerimeter=0;" edge="1" parent="1" target="l3QDP2yvxb4-1ACt48Nu-32">
          <mxGeometry width="50" height="50" relative="1" as="geometry">
            <mxPoint x="150" y="240" as="sourcePoint" />
            <mxPoint x="300" y="140" as="targetPoint" />
          </mxGeometry>
        </mxCell>
        <mxCell id="l3QDP2yvxb4-1ACt48Nu-40" value="course" style="ellipse;whiteSpace=wrap;html=1;" vertex="1" parent="1">
          <mxGeometry x="710" y="100" width="90" height="40" as="geometry" />
        </mxCell>
        <mxCell id="l3QDP2yvxb4-1ACt48Nu-41" value="name" style="ellipse;whiteSpace=wrap;html=1;" vertex="1" parent="1">
          <mxGeometry x="570" y="100" width="90" height="40" as="geometry" />
        </mxCell>
        <mxCell id="l3QDP2yvxb4-1ACt48Nu-42" value="&lt;u&gt;studentID&lt;/u&gt;" style="ellipse;whiteSpace=wrap;html=1;" vertex="1" parent="1">
          <mxGeometry x="520" y="160" width="90" height="40" as="geometry" />
        </mxCell>
        <mxCell id="l3QDP2yvxb4-1ACt48Nu-43" value="email" style="ellipse;whiteSpace=wrap;html=1;" vertex="1" parent="1">
          <mxGeometry x="750" y="160" width="90" height="40" as="geometry" />
        </mxCell>
        <mxCell id="l3QDP2yvxb4-1ACt48Nu-45" value="enrollmentNumber" style="ellipse;whiteSpace=wrap;html=1;" vertex="1" parent="1">
          <mxGeometry x="630" y="50" width="110" height="40" as="geometry" />
        </mxCell>
        <mxCell id="l3QDP2yvxb4-1ACt48Nu-46" value="" style="endArrow=none;html=1;rounded=0;entryX=0.5;entryY=1;entryDx=0;entryDy=0;exitX=0.462;exitY=-0.007;exitDx=0;exitDy=0;exitPerimeter=0;" edge="1" parent="1" source="l3QDP2yvxb4-1ACt48Nu-5" target="l3QDP2yvxb4-1ACt48Nu-45">
          <mxGeometry width="50" height="50" relative="1" as="geometry">
            <mxPoint x="500" y="290" as="sourcePoint" />
            <mxPoint x="550" y="240" as="targetPoint" />
          </mxGeometry>
        </mxCell>
        <mxCell id="l3QDP2yvxb4-1ACt48Nu-47" value="" style="endArrow=none;html=1;rounded=0;exitX=0.817;exitY=0.923;exitDx=0;exitDy=0;exitPerimeter=0;entryX=0.461;entryY=-0.016;entryDx=0;entryDy=0;entryPerimeter=0;" edge="1" parent="1" source="l3QDP2yvxb4-1ACt48Nu-42" target="l3QDP2yvxb4-1ACt48Nu-5">
          <mxGeometry width="50" height="50" relative="1" as="geometry">
            <mxPoint x="600" y="220" as="sourcePoint" />
            <mxPoint x="650" y="170" as="targetPoint" />
          </mxGeometry>
        </mxCell>
        <mxCell id="l3QDP2yvxb4-1ACt48Nu-48" value="" style="endArrow=none;html=1;rounded=0;exitX=-0.013;exitY=0.61;exitDx=0;exitDy=0;exitPerimeter=0;entryX=0.461;entryY=-0.018;entryDx=0;entryDy=0;entryPerimeter=0;" edge="1" parent="1" source="l3QDP2yvxb4-1ACt48Nu-43" target="l3QDP2yvxb4-1ACt48Nu-5">
          <mxGeometry width="50" height="50" relative="1" as="geometry">
            <mxPoint x="620" y="250" as="sourcePoint" />
            <mxPoint x="690" y="240" as="targetPoint" />
          </mxGeometry>
        </mxCell>
        <mxCell id="l3QDP2yvxb4-1ACt48Nu-49" value="" style="endArrow=none;html=1;rounded=0;entryX=0.24;entryY=0.928;entryDx=0;entryDy=0;entryPerimeter=0;exitX=0.459;exitY=-0.02;exitDx=0;exitDy=0;exitPerimeter=0;" edge="1" parent="1" source="l3QDP2yvxb4-1ACt48Nu-5" target="l3QDP2yvxb4-1ACt48Nu-40">
          <mxGeometry width="50" height="50" relative="1" as="geometry">
            <mxPoint x="690" y="240" as="sourcePoint" />
            <mxPoint x="670" y="200" as="targetPoint" />
          </mxGeometry>
        </mxCell>
        <mxCell id="l3QDP2yvxb4-1ACt48Nu-50" value="" style="endArrow=none;html=1;rounded=0;exitX=0.461;exitY=-0.013;exitDx=0;exitDy=0;exitPerimeter=0;" edge="1" parent="1" source="l3QDP2yvxb4-1ACt48Nu-5" target="l3QDP2yvxb4-1ACt48Nu-41">
          <mxGeometry width="50" height="50" relative="1" as="geometry">
            <mxPoint x="680" y="250" as="sourcePoint" />
            <mxPoint x="730" y="200" as="targetPoint" />
          </mxGeometry>
        </mxCell>
        <mxCell id="l3QDP2yvxb4-1ACt48Nu-51" value="name" style="ellipse;whiteSpace=wrap;html=1;" vertex="1" parent="1">
          <mxGeometry x="20" y="870" width="90" height="40" as="geometry" />
        </mxCell>
        <mxCell id="l3QDP2yvxb4-1ACt48Nu-52" value="name" style="ellipse;whiteSpace=wrap;html=1;" vertex="1" parent="1">
          <mxGeometry x="190" y="870" width="90" height="40" as="geometry" />
        </mxCell>
        <mxCell id="l3QDP2yvxb4-1ACt48Nu-53" value="name" style="ellipse;whiteSpace=wrap;html=1;" vertex="1" parent="1">
          <mxGeometry x="50" y="940" width="90" height="40" as="geometry" />
        </mxCell>
        <mxCell id="l3QDP2yvxb4-1ACt48Nu-54" value="name" style="ellipse;whiteSpace=wrap;html=1;" vertex="1" parent="1">
          <mxGeometry x="160" y="940" width="90" height="40" as="geometry" />
        </mxCell>
        <mxCell id="l3QDP2yvxb4-1ACt48Nu-55" value="name" style="ellipse;whiteSpace=wrap;html=1;" vertex="1" parent="1">
          <mxGeometry x="655" y="990" width="90" height="40" as="geometry" />
        </mxCell>
        <mxCell id="l3QDP2yvxb4-1ACt48Nu-56" value="name" style="ellipse;whiteSpace=wrap;html=1;" vertex="1" parent="1">
          <mxGeometry x="720" y="930" width="90" height="40" as="geometry" />
        </mxCell>
        <mxCell id="l3QDP2yvxb4-1ACt48Nu-57" value="name" style="ellipse;whiteSpace=wrap;html=1;" vertex="1" parent="1">
          <mxGeometry x="590" y="930" width="90" height="40" as="geometry" />
        </mxCell>
        <mxCell id="l3QDP2yvxb4-1ACt48Nu-58" value="name" style="ellipse;whiteSpace=wrap;html=1;" vertex="1" parent="1">
          <mxGeometry x="745" y="870" width="90" height="40" as="geometry" />
        </mxCell>
        <mxCell id="l3QDP2yvxb4-1ACt48Nu-59" value="name" style="ellipse;whiteSpace=wrap;html=1;" vertex="1" parent="1">
          <mxGeometry x="550" y="870" width="90" height="40" as="geometry" />
        </mxCell>
        <mxCell id="l3QDP2yvxb4-1ACt48Nu-60" value="" style="endArrow=none;html=1;rounded=0;entryX=0.5;entryY=1;entryDx=0;entryDy=0;exitX=1;exitY=0.5;exitDx=0;exitDy=0;" edge="1" parent="1" source="l3QDP2yvxb4-1ACt48Nu-51" target="l3QDP2yvxb4-1ACt48Nu-3">
          <mxGeometry width="50" height="50" relative="1" as="geometry">
            <mxPoint x="150" y="890" as="sourcePoint" />
            <mxPoint x="200" y="840" as="targetPoint" />
          </mxGeometry>
        </mxCell>
        <mxCell id="l3QDP2yvxb4-1ACt48Nu-62" value="" style="endArrow=none;html=1;rounded=0;entryX=0.5;entryY=1;entryDx=0;entryDy=0;" edge="1" parent="1" source="l3QDP2yvxb4-1ACt48Nu-52" target="l3QDP2yvxb4-1ACt48Nu-3">
          <mxGeometry width="50" height="50" relative="1" as="geometry">
            <mxPoint x="150" y="890" as="sourcePoint" />
            <mxPoint x="200" y="840" as="targetPoint" />
          </mxGeometry>
        </mxCell>
        <mxCell id="l3QDP2yvxb4-1ACt48Nu-63" value="" style="endArrow=none;html=1;rounded=0;exitX=0.5;exitY=1;exitDx=0;exitDy=0;entryX=0.667;entryY=0;entryDx=0;entryDy=0;entryPerimeter=0;" edge="1" parent="1" source="l3QDP2yvxb4-1ACt48Nu-3" target="l3QDP2yvxb4-1ACt48Nu-53">
          <mxGeometry width="50" height="50" relative="1" as="geometry">
            <mxPoint x="150" y="890" as="sourcePoint" />
            <mxPoint x="200" y="840" as="targetPoint" />
          </mxGeometry>
        </mxCell>
        <mxCell id="l3QDP2yvxb4-1ACt48Nu-64" value="" style="endArrow=none;html=1;rounded=0;entryX=0.5;entryY=1;entryDx=0;entryDy=0;exitX=0.399;exitY=-0.012;exitDx=0;exitDy=0;exitPerimeter=0;" edge="1" parent="1" source="l3QDP2yvxb4-1ACt48Nu-54" target="l3QDP2yvxb4-1ACt48Nu-3">
          <mxGeometry width="50" height="50" relative="1" as="geometry">
            <mxPoint x="150" y="890" as="sourcePoint" />
            <mxPoint x="200" y="840" as="targetPoint" />
          </mxGeometry>
        </mxCell>
        <mxCell id="l3QDP2yvxb4-1ACt48Nu-65" value="" style="endArrow=none;html=1;rounded=0;exitX=0.562;exitY=0.992;exitDx=0;exitDy=0;exitPerimeter=0;" edge="1" parent="1" source="l3QDP2yvxb4-1ACt48Nu-6">
          <mxGeometry width="50" height="50" relative="1" as="geometry">
            <mxPoint x="710" y="910" as="sourcePoint" />
            <mxPoint x="700" y="990" as="targetPoint" />
          </mxGeometry>
        </mxCell>
        <mxCell id="l3QDP2yvxb4-1ACt48Nu-66" value="" style="endArrow=none;html=1;rounded=0;entryX=0.561;entryY=1.001;entryDx=0;entryDy=0;entryPerimeter=0;" edge="1" parent="1" source="l3QDP2yvxb4-1ACt48Nu-58" target="l3QDP2yvxb4-1ACt48Nu-6">
          <mxGeometry width="50" height="50" relative="1" as="geometry">
            <mxPoint x="710" y="910" as="sourcePoint" />
            <mxPoint x="700" y="830" as="targetPoint" />
          </mxGeometry>
        </mxCell>
        <mxCell id="l3QDP2yvxb4-1ACt48Nu-67" value="" style="endArrow=none;html=1;rounded=0;entryX=0.56;entryY=1.002;entryDx=0;entryDy=0;entryPerimeter=0;" edge="1" parent="1" source="l3QDP2yvxb4-1ACt48Nu-59" target="l3QDP2yvxb4-1ACt48Nu-6">
          <mxGeometry width="50" height="50" relative="1" as="geometry">
            <mxPoint x="720" y="880" as="sourcePoint" />
            <mxPoint x="700" y="830" as="targetPoint" />
          </mxGeometry>
        </mxCell>
        <mxCell id="l3QDP2yvxb4-1ACt48Nu-68" value="" style="endArrow=none;html=1;rounded=0;entryX=0.558;entryY=1.006;entryDx=0;entryDy=0;entryPerimeter=0;" edge="1" parent="1" source="l3QDP2yvxb4-1ACt48Nu-57" target="l3QDP2yvxb4-1ACt48Nu-6">
          <mxGeometry width="50" height="50" relative="1" as="geometry">
            <mxPoint x="680" y="870" as="sourcePoint" />
            <mxPoint x="730" y="820" as="targetPoint" />
          </mxGeometry>
        </mxCell>
        <mxCell id="l3QDP2yvxb4-1ACt48Nu-69" value="" style="endArrow=none;html=1;rounded=0;entryX=0.558;entryY=1.021;entryDx=0;entryDy=0;entryPerimeter=0;exitX=0.333;exitY=0;exitDx=0;exitDy=0;exitPerimeter=0;" edge="1" parent="1" source="l3QDP2yvxb4-1ACt48Nu-56" target="l3QDP2yvxb4-1ACt48Nu-6">
          <mxGeometry width="50" height="50" relative="1" as="geometry">
            <mxPoint x="690" y="910" as="sourcePoint" />
            <mxPoint x="740" y="860" as="targetPoint" />
          </mxGeometry>
        </mxCell>
      </root>
    </mxGraphModel>
  </diagram>
</mxfile>
